PathFileType	4	(X/Y/Z)	E:\Qualisys_Data\Carbon_Farble_Plate\Data\Amateur_Runner\S14\T1\S14T1V23_c3d.trc
DataRate	CameraRate	NumFrames	NumMarkers	Units	OrigDataRate	OrigDataStartFrame	OrigNumFrames
200.000000	200.000000	4	39	mm	200.000000	192	308
Frame#	Time	LSHO			RSHO			LICST			RICST			LASIS			LHEEL			RASIS			LTROC			RTROC			SACR			LTH1			LSK4			LTH2			LTH3			RHM5			LSK2			LTH4			RTH1			LTOE			RTH2			RTH3			RTH4			LLEP			RLEP			LSK1			LSK3			RSK1			LHM5			RSK2			LFT1			RSK3			RSK4			LLME			RLME			RTOE			RHEEL			RFT1			RFT2			LFT2			
		X1	Y1	Z1	X2	Y2	Z2	X3	Y3	Z3	X4	Y4	Z4	X5	Y5	Z5	X6	Y6	Z6	X7	Y7	Z7	X8	Y8	Z8	X9	Y9	Z9	X10	Y10	Z10	X11	Y11	Z11	X12	Y12	Z12	X13	Y13	Z13	X14	Y14	Z14	X15	Y15	Z15	X16	Y16	Z16	X17	Y17	Z17	X18	Y18	Z18	X19	Y19	Z19	X20	Y20	Z20	X21	Y21	Z21	X22	Y22	Z22	X23	Y23	Z23	X24	Y24	Z24	X25	Y25	Z25	X26	Y26	Z26	X27	Y27	Z27	X28	Y28	Z28	X29	Y29	Z29	X30	Y30	Z30	X31	Y31	Z31	X32	Y32	Z32	X33	Y33	Z33	X34	Y34	Z34	X35	Y35	Z35	X36	Y36	Z36	X37	Y37	Z37	X38	Y38	Z38	X39	Y39	Z39	

193	0.96	842.2338256835938	1417.822875976562	-477.1674194335938	918.2001342773438	1411.0693359375	-183.4432220458984	820.9214477539062	967.337646484375	-452.5292663574219	867.4624633789062	966.8788452148438	-178.3186950683594	868.5158081054688	919.0438232421876	-428.721435546875	676.3844604492188	346.3238830566406	-324.2994689941406	890.5172119140625	924.509765625	-197.5978088378906	738.3222045898438	844.493896484375	-467.1361694335938	740.6964111328125	880.226318359375	-140.2022705078125	705.7203369140625	972.2131958007812	-306.021484375	953.0762939453124	690.8311767578125	-477.6546020507812	840.2537231445312	459.4334411621094	-413.0439453125	895.2857666015625	642.697021484375	-455.5923461914062	1022.680908203125	620.7481079101562	-457.2091369628906	551.018798828125	61.4442024230957	-183.4544982910156	915.83984375	520.4461669921875	-434.6260986328125	961.397216796875	571.9605712890625	-436.8353271484375	835.479248046875	623.6547241210938	-153.3262176513672	829.5714721679688	142.9282836914062	-376.4717712402344	760.1287841796875	640.502197265625	-141.4401702880859	815.8980102539062	528.8438720703125	-185.1268768310547	734.8827514648438	543.4118041992188	-164.9058990478516	1026.071411132812	550.8290405273438	-451.0767822265625	736.273193359375	467.7774658203125	-176.0514831542969	967.5436401367188	456.6437377929688	-439.2274780273438	888.5887451171875	394.60986328125	-417.1589050292969	687.33251953125	352.6968383789062	-175.9574127197266	775.0426025390625	193.5369262695312	-430.2004089355469	618.4317016601562	404.4826965332031	-173.5478973388672	663.4430541992188	318.6823120117188	-299.8356018066406	619.6053466796875	275.7326354980469	-192.9647064208984	560.5328369140625	328.4081420898438	-189.3216552734375	731.1328125	325.1797180175781	-390.0935974121094	474.5272521972656	172.1964874267578	-213.47705078125	616.798583984375	45.15642547607422	-248.216796875	409.3207702636719	173.4043731689453	-268.0543518066406	408.8516845703125	141.7223663330078	-296.9054565429688	398.9047546386719	152.9270629882812	-239.9445648193359	655.7117309570312	330.6343383789062	-353.3458251953125
194	0.965	859.3634033203125	1422.2490234375	-477.7510986328125	938.123291015625	1415.84912109375	-185.2044219970703	841.1500854492188	972.8839721679688	-453.3646545410156	888.9326782226562	970.3731079101562	-178.8554077148438	889.7572631835938	924.1424560546876	-429.1949462890625	707.1178588867188	332.6043395996094	-326.50146484375	911.7638549804688	928.125	-198.3701324462891	760.2042846679688	850.0037231445312	-468.5242004394531	761.6803588867188	883.89306640625	-140.1177368164062	726.9993286132812	975.9566040039062	-305.7804870605469	975.8414916992188	696.4624633789062	-477.5289306640625	866.968994140625	454.5294799804688	-413.704833984375	917.88623046875	647.7537231445312	-456.6917114257812	1045.54833984375	626.2866821289062	-456.2846069335938	552.470703125	61.58757781982422	-183.8069305419922	939.4832763671876	519.1901245117188	-435.1009521484375	984.1896362304688	577.0562133789062	-438.1224060058594	850.9835205078125	626.92724609375	-154.2417755126953	872.9810180664062	138.7049407958984	-375.8639221191406	776.100830078125	645.0570068359375	-141.1980285644531	828.3123779296875	532.426513671875	-185.8097076416016	748.6863403320312	548.9208984375	-164.4176788330078	1049.228881835938	555.2261962890625	-449.9900207519531	747.8565063476562	473.3536376953125	-175.3347015380859	994.0223999023438	458.0689392089844	-439.5278015136719	918.242919921875	392.5270690917969	-417.5547180175781	697.8717651367188	357.7484130859375	-176.0964050292969	816.3994750976562	186.4580230712891	-428.9080505371094	629.3463134765625	410.5528869628906	-171.8081665039062	697.0620727539062	305.00244140625	-301.7485961914062	629.4379272460938	281.1318664550781	-192.6530914306641	570.7757568359375	334.6876220703125	-186.9957580566406	763.8737182617188	315.0681457519531	-391.0562744140625	482.8370666503906	178.8840179443359	-211.7758026123047	618.9532470703125	44.85001754760742	-247.17919921875	418.3659362792969	183.0944061279297	-266.4133605957031	417.0552062988281	151.578857421875	-295.9012756347656	407.1141052246094	162.7642669677734	-238.9569396972656	687.5572509765625	315.7181396484375	-354.7454833984375
195	0.97	876.9092407226562	1426.542724609375	-477.9335632324219	957.8936767578124	1420.404541015625	-186.9995422363281	860.9542846679688	978.0487060546876	-454.1850891113281	910.5313720703124	973.9570922851562	-180.2571411132812	910.348876953125	929.000244140625	-429.7569885253906	737.6907348632812	318.60791015625	-328.6839599609375	933.2479858398438	931.88916015625	-199.1776428222656	781.8896484375	855.7683715820312	-470.2956237792969	782.6568603515625	888.3068237304688	-140.1767272949219	748.311767578125	979.681640625	-306.0884399414062	998.38916015625	701.50244140625	-477.0810852050781	893.2933959960938	449.6205444335938	-414.8627319335938	940.39794921875	652.4727172851562	-457.8527221679688	1068.078491210938	631.4721069335938	-455.8302307128906	556.9354858398438	63.85408782958984	-182.1773986816406	962.967041015625	517.280517578125	-435.6060485839844	1006.559265136719	582.1876831054688	-439.7160949707031	866.3328857421875	630.4600830078125	-154.7747802734375	916.2377319335938	135.9097900390625	-376.0949401855469	791.904052734375	649.7047119140625	-141.1567077636719	841.5364379882812	536.1353149414062	-186.1857147216797	762.1713256835938	554.18310546875	-163.78564453125	1071.304809570312	559.5823364257812	-449.4143981933594	759.4730224609375	478.9478759765625	-175.1946563720703	1020.937683105469	458.1254272460938	-439.3761291503906	947.8563232421876	389.2806091308594	-418.0680541992188	708.4163208007812	362.8542175292969	-176.0375823974609	855.4630737304688	178.3134918212891	-429.7170715332031	639.9892578125	415.8122863769531	-169.6517791748047	732.5123901367188	290.6963195800781	-302.9269104003906	639.5097045898438	286.6011047363281	-191.8892669677734	581.184326171875	340.4021911621094	-185.2937927246094	797.095703125	304.7636108398438	-392.6949157714844	492.1431579589844	184.6346588134766	-210.7073059082031	621.2724609375	44.56625366210938	-246.0365600585938	428.3658142089844	192.4691772460938	-264.9810791015625	426.0583801269531	161.0655670166016	-294.8993835449219	416.0738830566406	172.4333038330078	-237.9226837158203	720.7421264648438	301.4074096679688	-356.6683959960938
196	0.975	894.0511474609375	1430.944091796875	-478.36376953125	977.4365234375	1425.070556640625	-188.6969146728516	881.1323852539062	982.8516235351562	-455.1334533691406	932.0866088867188	977.2879028320312	-180.9776763916016	931.528076171875	933.8546752929688	-430.2578430175781	770.7938232421875	306.1817932128906	-330.6012573242188	954.5274658203124	934.9998168945312	-200.2835998535156	803.5945434570312	860.8348388671875	-471.5057067871094	803.5030517578125	892.67578125	-140.3383178710938	769.638916015625	983.6561889648438	-306.4604187011719	1021.016174316406	706.2910766601562	-476.7705993652344	920.1739501953124	443.7236633300781	-415.8693542480469	962.6787109375	657.1246337890625	-458.9435119628906	1090.485961914062	635.5757446289062	-455.2655029296875	560.820068359375	65.96143341064453	-181.3843536376953	986.4778442382812	515.0043334960938	-436.3078918457031	1028.407836914062	586.3668823242188	-440.9666137695312	881.8575439453125	633.88818359375	-155.0908813476562	958.9754028320312	133.0794982910156	-376.6528930664062	807.7722778320312	654.6118774414062	-141.3636322021484	854.66455078125	540.2158813476562	-185.9329986572266	775.9269409179688	559.5985107421875	-163.3966369628906	1093.013793945312	563.0726318359375	-449.0176086425781	771.0307006835938	484.2662963867188	-174.3678131103516	1047.057250976562	458.8992004394531	-439.6181030273438	977.4423217773438	386.6368103027344	-419.0039367675781	717.3864135742188	367.7332458496094	-175.5236206054688	894.6892700195312	169.62841796875	-430.9466552734375	651.0042114257812	421.3952941894531	-168.1459350585938	766.6070556640625	278.1224060058594	-304.5420227050781	649.7005004882812	292.3811645507812	-190.8617095947266	591.5588989257812	346.0111999511719	-183.9139709472656	830.7496337890625	294.5198364257812	-393.9563903808594	502.2032470703125	191.3404388427734	-209.4747314453125	624.0653686523438	43.91244125366211	-244.9208984375	439.119873046875	202.0728759765625	-263.6318054199219	435.482666015625	171.1161499023438	-293.8509216308594	425.9467468261719	182.3070526123047	-236.8603057861328	754.4163818359375	286.7952575683594	-357.7338256835938
